# File created by Blade
# Date/Time:  Tue Jan 27 19:38:14 2015
# Frame Rate: 120.000 fps
#------------------------------------------------------
:FULLY-SPECIFIED
:DEGREES
2164
root 4.591173 32.332871 2.191117 -3.674628 -4.533550 0.064666
Spine 2.230797 2.526517 -0.794979
Head 5.888752 -4.472866 3.284692
LeftShoulder -8.748815 -3.657507 26.259094
LeftArm -0.589629 34.177446 -100.993769
LeftForeArm 3.449976 -0.000000 11.236351
LeftHand 10.608653 -0.000000 -4.176115
LeftHandThumb1 -26.253704 0.000000 33.147579
RightShoulder -15.444011 -12.673260 -26.542822
RightArm 18.828905 31.597650 108.496059
RightForeArm 2.729352 0.000000 148.521975
RightHand 27.854508 0.000000 -13.548184
RightHandThumb1 -24.326973 -0.000000 -32.862282
LeftUpLeg 8.617912 -0.167724 -3.270371
LeftLeg 2.605632 -0.000000 -0.000000
LeftFoot -18.337920 14.968461 -22.077348
LeftToeBase 16.739076 -0.000000 -0.000000
RightUpLeg 6.117831 -3.498364 3.142388
RightLeg 3.864174 -0.000000 -0.000000
RightFoot -12.359588 -12.689265 13.107095
RightToeBase 9.080663 -0.000000 -0.000000
2165
root 4.581331 32.333352 2.193518 -3.709566 -4.542751 0.048617
Spine 2.219605 2.553011 -0.852974
Head 5.981072 -4.525439 3.309064
LeftShoulder -8.693848 -3.755241 26.219838
LeftArm -0.621953 34.351516 -100.983216
LeftForeArm 3.268079 -0.000000 11.125925
LeftHand 10.606144 0.000000 -4.296137
LeftHandThumb1 -26.253704 0.000000 33.147579
RightShoulder -15.440965 -12.570909 -26.612835
RightArm 19.031885 31.715150 108.751665
RightForeArm 2.640247 0.000000 148.784663
RightHand 27.586359 -0.000000 -13.844113
RightHandThumb1 -24.326973 -0.000000 -32.862282
LeftUpLeg 8.664873 -0.143067 -3.231643
LeftLeg 2.598545 -0.000000 -0.000000
LeftFoot -18.339147 14.941735 -22.085957
LeftToeBase 16.693153 -0.000000 -0.000000
RightUpLeg 6.148836 -3.515965 3.171874
RightLeg 3.881791 -0.000000 -0.000000
RightFoot -12.345692 -12.680390 13.085108
RightToeBase 9.094194 -0.000000 -0.000000
2166
root 4.575936 32.332672 2.194244 -3.733248 -4.556551 0.064579
Spine 2.202799 2.606815 -0.922831
Head 6.041546 -4.634626 3.295261
LeftShoulder -8.655250 -3.837240 26.165806
LeftArm -0.604310 34.617140 -100.953063
LeftForeArm 3.151279 -0.000000 10.990768
LeftHand 10.541908 -0.000000 -4.188596
LeftHandThumb1 -26.253704 0.000000 33.147579
RightShoulder -15.443984 -12.500209 -26.706439
RightArm 19.163023 31.819362 109.007751
RightForeArm 2.396375 -0.000000 149.027292
RightHand 27.836788 -0.000000 -13.458972
RightHandThumb1 -24.326973 -0.000000 -32.862282
LeftUpLeg 8.696220 -0.134090 -3.240707
LeftLeg 2.594826 -0.000000 -0.000000
LeftFoot -18.342625 14.946379 -22.120874
LeftToeBase 16.684074 -0.000000 -0.000000
RightUpLeg 6.167919 -3.472455 3.168908
RightLeg 3.891682 -0.000000 -0.000000
RightFoot -12.371513 -12.698418 13.106534
RightToeBase 9.034973 -0.000000 -0.000000
2167
root 4.567553 32.332317 2.196320 -3.763187 -4.548896 0.054742
Spine 2.194900 2.667987 -0.970629
Head 6.082834 -4.769681 3.292969
LeftShoulder -8.608460 -3.955606 26.127878
LeftArm -0.607424 34.846010 -100.947846
LeftForeArm 3.123967 -0.000000 10.846380
LeftHand 10.450368 -0.000000 -4.209122
LeftHandThumb1 -26.253704 0.000000 33.147579
RightShoulder -15.499819 -12.563944 -26.740607
RightArm 19.375299 31.773050 109.216796
RightForeArm 2.304070 0.000000 149.291501
RightHand 27.684992 -0.000000 -13.718992
RightHandThumb1 -24.326973 -0.000000 -32.862282
LeftUpLeg 8.732117 -0.098547 -3.207876
LeftLeg 2.588800 -0.000000 -0.000000
LeftFoot -18.269102 14.925677 -21.972327
LeftToeBase 16.486014 -0.000000 -0.000000
RightUpLeg 6.198962 -3.507880 3.188444
RightLeg 3.901457 -0.000000 -0.000000
RightFoot -12.359883 -12.679720 13.066222
RightToeBase 9.010906 -0.000000 -0.000000
2168
root 4.562273 32.331736 2.197696 -3.782760 -4.530938 0.059117
Spine 2.174579 2.708474 -1.035279
Head 6.110430 -4.889052 3.297645
LeftShoulder -8.602263 -4.019290 26.099261
LeftArm -0.533163 35.080622 -100.932189
LeftForeArm 3.133788 -0.000000 10.660052
LeftHand 10.393919 0.000000 -4.266301
LeftHandThumb1 -26.253704 0.000000 33.147579
RightShoulder -15.536815 -12.684865 -26.761689
RightArm 19.580549 31.668850 109.368419
RightForeArm 2.309549 -0.000000 149.462076
RightHand 27.725307 -0.000000 -13.697785
RightHandThumb1 -24.326973 -0.000000 -32.862282
LeftUpLeg 8.748039 -0.115985 -3.204549
LeftLeg 2.605768 -0.000000 -0.000000
LeftFoot -18.361443 14.878860 -22.154732
LeftToeBase 16.696031 -0.000000 -0.000000
RightUpLeg 6.223922 -3.540031 3.190467
RightLeg 3.900916 -0.000000 -0.000000
RightFoot -12.379950 -12.680796 13.070321
RightToeBase 9.029889 -0.000000 -0.000000
2169
root 4.554989 32.330753 2.201280 -3.798538 -4.512612 0.057379
Spine 2.172935 2.777528 -1.093657
Head 6.053285 -5.017507 3.304548
LeftShoulder -8.610214 -4.078222 26.074556
LeftArm -0.446501 35.265111 -100.911982
LeftForeArm 3.320729 -0.000000 10.477820
LeftHand 10.400833 -0.000000 -3.798714
LeftHandThumb1 -26.253704 0.000000 33.147579
RightShoulder -15.673197 -12.760118 -26.764898
RightArm 19.677018 31.468760 109.413873
RightForeArm 2.241742 -0.000000 149.543659
RightHand 27.678231 -0.000000 -13.670726
RightHandThumb1 -24.326973 -0.000000 -32.862282
LeftUpLeg 8.775892 -0.122658 -3.186066
LeftLeg 2.582074 -0.000000 -0.000000
LeftFoot -18.334024 14.881526 -22.113509
LeftToeBase 16.692093 -0.000000 -0.000000
RightUpLeg 6.253529 -3.537106 3.205257
RightLeg 3.893050 -0.000000 -0.000000
RightFoot -12.398063 -12.704018 13.079100
RightToeBase 9.111577 -0.000000 -0.000000
2170
root 4.547120 32.330082 2.205050 -3.801828 -4.481810 0.059585
Spine 2.158435 2.819216 -1.153779
Head 5.985593 -5.126481 3.292140
LeftShoulder -8.633099 -4.127274 26.053872
LeftArm -0.391130 35.365134 -100.899501
LeftForeArm 3.534041 -0.000000 10.348807
LeftHand 10.364678 -0.000000 -3.685670
LeftHandThumb1 -26.253704 0.000000 33.147579
RightShoulder -15.929226 -12.942944 -26.689447
RightArm 19.914256 31.007882 109.457990
RightForeArm 1.970765 -0.000000 149.462902
RightHand 27.741464 -0.000000 -13.379889
RightHandThumb1 -24.326973 -0.000000 -32.862282
LeftUpLeg 8.786040 -0.161292 -3.176053
LeftLeg 2.582446 -0.000000 -0.000000
LeftFoot -18.348475 14.854112 -22.148842
LeftToeBase 16.688949 -0.000000 -0.000000
RightUpLeg 6.276950 -3.553865 3.217316
RightLeg 3.874627 -0.000000 -0.000000
RightFoot -12.393534 -12.719748 13.053609
RightToeBase 9.039123 -0.000000 -0.000000
2171
root 4.542274 32.329010 2.208874 -3.813975 -4.452044 0.049617
Spine 2.147584 2.830761 -1.200576
Head 5.932652 -5.219709 3.309784
LeftShoulder -8.668216 -4.130746 26.058789
LeftArm -0.329894 35.352595 -100.922315
LeftForeArm 3.577390 -0.000000 10.249547
LeftHand 10.455088 -0.000000 -4.308281
LeftHandThumb1 -26.253704 0.000000 33.147579
RightShoulder -16.000706 -12.988826 -26.703330
RightArm 19.903296 30.868501 109.414181
RightForeArm 1.948495 -0.000000 149.386514
RightHand 27.551949 -0.000000 -13.362144
RightHandThumb1 -24.326973 -0.000000 -32.862282
LeftUpLeg 8.808122 -0.167820 -3.161168
LeftLeg 2.578126 -0.000000 -0.000000
LeftFoot -18.299139 14.869801 -22.008188
LeftToeBase 16.533666 -0.000000 -0.000000
RightUpLeg 6.310915 -3.589896 3.231243
RightLeg 3.854558 -0.000000 -0.000000
RightFoot -12.401554 -12.717046 13.056289
RightToeBase 9.076868 -0.000000 -0.000000
2172
root 4.539450 32.328545 2.211941 -3.827668 -4.423682 0.057755
Spine 2.128804 2.822853 -1.270508
Head 5.907382 -5.288444 3.346113
LeftShoulder -8.667907 -4.109867 26.057156
LeftArm -0.298319 35.205532 -100.947088
LeftForeArm 3.744567 -0.000000 10.207323
LeftHand 10.441593 0.000000 -4.346393
LeftHandThumb1 -26.253704 0.000000 33.147579
RightShoulder -15.988776 -13.021369 -26.729163
RightArm 19.833144 30.842786 109.359578
RightForeArm 1.778564 -0.000000 149.256383
RightHand 27.472450 -0.000000 -13.518640
RightHandThumb1 -24.326973 -0.000000 -32.862282
LeftUpLeg 8.815538 -0.196672 -3.164085
LeftLeg 2.602001 -0.000000 -0.000000
LeftFoot -18.378723 14.812455 -22.191070
LeftToeBase 16.680299 -0.000000 -0.000000
RightUpLeg 6.336669 -3.600630 3.226457
RightLeg 3.847421 -0.000000 -0.000000
RightFoot -12.414622 -12.728431 13.055429
RightToeBase 9.085401 -0.000000 -0.000000
2173
root 4.535402 32.328137 2.214918 -3.851017 -4.398170 0.049891
Spine 2.126191 2.799753 -1.321784
Head 5.874495 -5.343593 3.384431
LeftShoulder -8.680837 -4.078367 26.050971
LeftArm -0.278304 35.062823 -100.979557
LeftForeArm 3.883624 -0.000000 10.185102
LeftHand 10.385046 0.000000 -3.638688
LeftHandThumb1 -26.253704 0.000000 33.147579
RightShoulder -15.939680 -13.011169 -26.762786
RightArm 19.687050 30.893957 109.254946
RightForeArm 1.600547 -0.000000 149.116007
RightHand 27.232533 -0.000000 -13.841323
RightHandThumb1 -24.326973 -0.000000 -32.862282
LeftUpLeg 8.846238 -0.221868 -3.153984
LeftLeg 2.594719 -0.000000 -0.000000
LeftFoot -18.376054 14.840347 -22.159524
LeftToeBase 16.650003 -0.000000 -0.000000
RightUpLeg 6.374401 -3.611798 3.239238
RightLeg 3.837440 -0.000000 -0.000000
RightFoot -12.423217 -12.741588 13.073747
RightToeBase 9.093834 -0.000000 -0.000000
2174
root 4.532083 32.327694 2.217718 -3.872785 -4.390350 0.046500
Spine 2.114521 2.803817 -1.359080
Head 5.880041 -5.426616 3.384812
LeftShoulder -8.674589 -4.030667 26.032428
LeftArm -0.257936 34.882589 -100.998746
LeftForeArm 3.857457 -0.000000 10.194802
LeftHand 10.374200 -0.000000 -3.945668
LeftHandThumb1 -26.253704 0.000000 33.147579
RightShoulder -15.895949 -13.068331 -26.793657
RightArm 19.556483 30.918242 109.153468
RightForeArm 1.404936 -0.000000 148.913455
RightHand 27.419467 -0.000000 -14.091239
RightHandThumb1 -24.326973 -0.000000 -32.862282
LeftUpLeg 8.870874 -0.229633 -3.147158
LeftLeg 2.602418 -0.000000 -0.000000
LeftFoot -18.398648 14.830140 -22.179112
LeftToeBase 16.663170 -0.000000 -0.000000
RightUpLeg 6.400045 -3.603134 3.247474
RightLeg 3.843118 -0.000000 -0.000000
RightFoot -12.438194 -12.751786 13.093883
RightToeBase 9.089179 -0.000000 -0.000000
2175
root 4.529245 32.327562 2.220373 -3.898518 -4.380785 0.040462
Spine 2.116040 2.817933 -1.391248
Head 5.858300 -5.512523 3.385012
LeftShoulder -8.657657 -4.029861 26.004716
LeftArm -0.294753 34.714852 -101.034339
LeftForeArm 3.886297 0.000000 10.231265
LeftHand 10.399195 -0.000000 -3.518709
LeftHandThumb1 -26.253704 0.000000 33.147579
RightShoulder -15.852124 -13.104157 -26.793243
RightArm 19.404174 31.055814 109.040944
RightForeArm 1.415493 -0.000000 148.774406
RightHand 27.389785 -0.000000 -14.195014
RightHandThumb1 -24.326973 -0.000000 -32.862282
LeftUpLeg 8.894770 -0.232819 -3.135093
LeftLeg 2.617088 -0.000000 -0.000000
LeftFoot -18.418992 14.806202 -22.157565
LeftToeBase 16.839219 -0.000000 -0.000000
RightUpLeg 6.428286 -3.596876 3.257952
RightLeg 3.852302 -0.000000 -0.000000
RightFoot -12.443404 -12.756709 13.097068
RightToeBase 9.093158 -0.000000 -0.000000
